# xmcd
#
# Track frame offsets:
#	150
#	17473
#	30547
#	43192
#	56726
#	68194
#	84250
#	97711
#	115019
#	131064
#	146356
#	159587
#	174617
#	192575
#	211103
#
# Disc length: 3014 seconds
#
# Revision: 0
# Processed by: cddbd v1.5.1PL2 Copyright (c) Steve Scherf et al.
# Submitted via: EasyCDDAExtractor 9.0.2.1
#
DISCID=c30bc40f
DTITLE=Various Artist - Coracao
DYEAR=2006
DGENRE=Gaucha
TTITLE0=Heranca - Coracao
TTITLE1=Heranca - Arrepiou
TTITLE2=Heranca - Beijo Ta Na Moda
TTITLE3=Heranca - Dum Dum
TTITLE4=Heranca - Ouca O Grito Da Galera
TTITLE5=Heranca - Toma Conta De Mim
TTITLE6=Heranca E Garotos De Ouro - Recado Meu
TTITLE7=Heranca - E O Vento Levou
TTITLE8=Heranca - Vai Bomba
TTITLE9=Heranca - Se Voce Quer Tome
TTITLE10=Heranca - Mulher Brava
TTITLE11=Heranca - Nada Serio
TTITLE12=Heranca - Apaga Tudo
TTITLE13=Heranca - A Nossa Cancao
TTITLE14=Heranca - So Mais Uma Vez
EXTD=
EXTT0=
EXTT1=
EXTT2=
EXTT3=
EXTT4=
EXTT5=
EXTT6=
EXTT7=
EXTT8=
EXTT9=
EXTT10=
EXTT11=
EXTT12=
EXTT13=
EXTT14=
PLAYORDER=
